HIERARCHY
ROOT Hips
{
	OFFSET 0.000000 0.000000 0.000000
	CHANNELS 6 Xposition Yposition Zposition Zrotation Yrotation Xrotation 
	JOINT LowerBack
	{
		OFFSET 0.000000 0.000000 0.000000
		CHANNELS 3 Zrotation Yrotation Xrotation
		JOINT Spine
		{
			OFFSET 0.028270 2.035590 -0.193380
			CHANNELS 3 Zrotation Yrotation Xrotation
			JOINT Spine1
			{
				OFFSET 0.056720 2.048850 -0.042750
				CHANNELS 3 Zrotation Yrotation Xrotation
				JOINT Neck
				{
					OFFSET 0.000000 0.000000 0.000000
					CHANNELS 3 Zrotation Yrotation Xrotation
					JOINT Neck1
					{
						OFFSET -0.054170 1.746240 0.172020
						CHANNELS 3 Zrotation Yrotation Xrotation
						JOINT Head
						{
							OFFSET 0.104070 1.761360 -0.123970
							CHANNELS 3 Zrotation Yrotation Xrotation
							End Site
							{
								OFFSET 0.000000 0.000000 0.000000
							}
						}
					}
				}
				JOINT LeftShoulder
				{
					OFFSET 0.000000 0.000000 0.000000
					CHANNELS 3 Zrotation Yrotation Xrotation
					JOINT LeftArm
					{
						OFFSET 3.362410 1.200890 -0.311210
						CHANNELS 3 Zrotation Yrotation Xrotation
						JOINT LeftForeArm
						{
							OFFSET 4.983000 -0.000000 -0.000000
							CHANNELS 3 Zrotation Yrotation Xrotation
							JOINT LeftHand
							{
								OFFSET 3.483560 -0.000000 -0.000000
								CHANNELS 3 Zrotation Yrotation Xrotation
								JOINT LeftFingerBase
								{
									OFFSET 0.000000 0.000000 0.000000
									CHANNELS 3 Zrotation Yrotation Xrotation
									JOINT LeftHandIndex1
									{
										OFFSET 0.715260 -0.000000 -0.000000
										CHANNELS 3 Zrotation Yrotation Xrotation
										End Site
										{
											OFFSET 0.000000 0.000000 0.000000
										}
									}
								}
								JOINT LThumb
								{
									OFFSET 0.000000 0.000000 0.000000
									CHANNELS 3 Zrotation Yrotation Xrotation
									End Site
									{
										OFFSET 0.000000 0.000000 0.000000
									}
								}
							}
						}
					}
				}
				JOINT RightShoulder
				{
					OFFSET 0.000000 0.000000 0.000000
					CHANNELS 3 Zrotation Yrotation Xrotation
					JOINT RightArm
					{
						OFFSET -3.136600 1.374050 -0.404650
						CHANNELS 3 Zrotation Yrotation Xrotation
						JOINT RightForeArm
						{
							OFFSET -5.241900 -0.000000 -0.000000
							CHANNELS 3 Zrotation Yrotation Xrotation
							JOINT RightHand
							{
								OFFSET -3.444170 -0.000000 -0.000000
								CHANNELS 3 Zrotation Yrotation Xrotation
								JOINT RightFingerBase
								{
									OFFSET 0.000000 0.000000 0.000000
									CHANNELS 3 Zrotation Yrotation Xrotation
									JOINT RightHandIndex1
									{
										OFFSET -0.622530 -0.000000 -0.000000
										CHANNELS 3 Zrotation Yrotation Xrotation
										End Site
										{
											OFFSET 0.000000 0.000000 0.000000
										}
									}
								}
								JOINT RThumb
								{
									OFFSET 0.000000 0.000000 0.000000
									CHANNELS 3 Zrotation Yrotation Xrotation
									End Site
									{
										OFFSET 0.000000 0.000000 0.000000
									}
								}
							}
						}
					}
				}
			}
		}
	}
}
}
MOTION
Frames: 9
Frame Time: 0.008333
-11.908662 16.879604 -1.933474 148.722044 87.261312 165.511568 5.876990 -3.799815 1.196171 0.267514 -4.196742 -2.201381 -7.846981 -4.137060 2.095782 10.809919 -9.324550 -6.258044 -4.261097 -0.325681 0.262780 0.000000 0.000000 0.000000 -0.409749 4.377854 3.049880 -34.830209 -13.455948 6.329635 -1.917099 -66.428364 0.033416 -14.312583 1.688534 -0.195580 0.020377 0.127167 0.000000 0.000000 0.000000 0.000000 0.000000 0.000000 0.000000 20.367108 -9.012663 0.585254 63.958763 -4.038295 -8.638808 3.760797 29.946266 0.016016 7.521621 7.935354 0.523034 0.054458 -0.058954 -0.000000 0.000000 0.000000 0.000000 0.000000 0.000000 0.000000 
-11.731225 16.897065 -1.908355 157.341141 87.479421 174.188068 6.548534 -3.696518 1.149173 0.390510 -4.132895 -2.233300 -7.836296 -4.076279 2.057297 10.813473 -9.115328 -6.249798 -4.290107 -0.327773 0.264940 0.000000 0.000000 0.000000 -0.645413 4.512654 3.038241 -35.820523 -12.629698 6.490125 -2.003806 -65.809445 0.031452 -14.311544 1.725153 -0.200931 0.011100 0.119917 0.000000 0.000000 0.000000 0.000000 0.000000 0.000000 0.000000 20.432389 -8.769552 0.595685 63.766045 -3.487616 -8.515090 3.793835 29.566618 0.016002 7.506889 7.879413 0.518332 0.055117 -0.058694 -0.000000 0.000000 0.000000 0.000000 0.000000 0.000000 0.000000 
-11.555709 16.916414 -1.880725 164.658285 87.695210 -178.438344 7.078924 -3.585515 1.118146 0.481640 -4.054532 -2.262567 -7.820076 -4.000932 2.019228 10.839238 -8.882219 -6.227254 -4.315914 -0.329725 0.270765 0.000000 0.000000 0.000000 -0.823189 4.642654 3.015915 -36.847868 -11.754018 6.633086 -2.093429 -65.107645 0.029372 -14.311655 1.760443 -0.206186 0.002171 0.112238 0.000000 0.000000 0.000000 0.000000 0.000000 0.000000 0.000000 20.508767 -8.499570 0.606992 63.585693 -2.876226 -8.331910 3.826058 29.156675 0.015977 7.509669 7.817346 0.514431 0.055585 -0.058459 -0.000000 0.000000 0.000000 0.000000 0.000000 0.000000 0.000000 
-11.382320 16.937358 -1.850453 170.573746 87.875527 -172.467701 7.469125 -3.484671 1.093725 0.546077 -3.978902 -2.289783 -7.797607 -3.928563 1.984121 10.887599 -8.628518 -6.189861 -4.338312 -0.331551 0.280534 0.000000 0.000000 0.000000 -0.943284 4.760209 2.986881 -37.897979 -10.839779 6.766809 -2.186064 -64.324480 0.027208 -14.317288 1.794193 -0.211348 -0.006384 0.104220 0.000000 0.000000 0.000000 0.000000 0.000000 0.000000 0.000000 20.596440 -8.214920 0.616760 63.421162 -2.206749 -8.096729 3.856786 28.719779 0.015934 7.535378 7.752802 0.511929 0.055783 -0.058204 -0.000000 0.000000 0.000000 0.000000 0.000000 0.000000 0.000000 
-11.211181 16.959586 -1.817592 175.176643 88.006601 -167.808783 7.743397 -3.401798 1.067661 0.591068 -3.914768 -2.315699 -7.769853 -3.868089 1.953283 10.956000 -8.358181 -6.138184 -4.357181 -0.333261 0.294219 0.000000 0.000000 0.000000 -1.010249 4.863120 2.954329 -38.956796 -9.898736 6.900787 -2.281691 -63.462395 0.024986 -14.331338 1.826800 -0.216516 -0.014558 0.095959 0.000000 0.000000 0.000000 0.000000 0.000000 0.000000 0.000000 20.692038 -7.923856 0.623433 63.275002 -1.483188 -7.815872 3.885845 28.263689 0.015876 7.586306 7.690774 0.511228 0.055698 -0.057933 -0.000000 0.000000 0.000000 0.000000 0.000000 0.000000 0.000000 
-11.042413 16.982847 -1.782469 178.673857 88.091669 -164.253475 7.930357 -3.336058 1.035232 0.622293 -3.862822 -2.341029 -7.738722 -3.820196 1.926367 11.039198 -8.068386 -6.072486 -4.372646 -0.334869 0.311813 0.000000 0.000000 0.000000 -1.034400 4.957167 2.921285 -40.007276 -8.949961 7.049043 -2.380591 -62.522167 0.022729 -14.355960 1.859745 -0.221988 -0.022408 0.087536 0.000000 0.000000 0.000000 0.000000 0.000000 0.000000 0.000000 20.789374 -7.622389 0.626352 63.152075 -0.721687 -7.510096 3.913095 27.808860 0.015809 7.670611 7.628943 0.512927 0.055291 -0.057666 -0.000000 0.000000 0.000000 0.000000 0.000000 0.000000 0.000000 
-10.876168 17.006916 -1.745378 -178.859073 88.136086 -161.726626 8.046050 -3.284762 0.997058 0.642554 -3.821088 -2.365093 -7.704236 -3.782826 1.904407 11.133055 -7.782457 -5.998034 -4.384056 -0.336302 0.331969 0.000000 0.000000 0.000000 -1.017203 5.030941 2.886702 -41.048166 -7.986984 7.210715 -2.481224 -61.513872 0.020434 -14.395087 1.896306 -0.228166 -0.029762 0.078929 0.000000 0.000000 0.000000 0.000000 0.000000 0.000000 0.000000 20.884387 -7.333966 0.626744 63.047506 0.096354 -7.146384 3.938613 27.354013 0.015768 7.768662 7.583083 0.516426 0.054731 -0.057526 -0.000000 0.000000 0.000000 0.000000 0.000000 0.000000 0.000000 
-10.712435 17.031687 -1.706975 -177.106935 88.153140 -159.914121 8.113392 -3.241296 0.954202 0.654816 -3.784384 -2.388654 -7.668613 -3.750728 1.884008 11.228766 -7.475196 -5.911817 -4.392037 -0.337606 0.355407 0.000000 0.000000 0.000000 -0.979795 5.104648 2.855371 -42.054906 -7.047279 7.410932 -2.585043 -60.432518 0.018108 -14.445404 1.938002 -0.235150 -0.036908 0.070257 0.000000 0.000000 0.000000 0.000000 0.000000 0.000000 0.000000 20.966243 -7.026246 0.624273 62.970492 0.920159 -6.782602 3.961181 26.947493 0.015734 7.901078 7.535915 0.522125 0.053839 -0.057498 -0.000000 0.000000 0.000000 0.000000 0.000000 0.000000 0.000000 
-10.551342 17.057024 -1.667692 -175.989235 88.148672 -158.740800 8.139972 -3.202059 0.913879 0.660179 -3.749142 -2.409952 -7.630876 -3.720225 1.866070 11.321635 -7.172533 -5.820493 -4.395840 -0.338674 0.380293 0.000000 0.000000 0.000000 -0.925668 5.167484 2.825478 -43.029324 -6.125802 7.647921 -2.690302 -59.289035 0.015740 -14.508163 1.988598 -0.243637 -0.043698 0.061488 0.000000 0.000000 0.000000 0.000000 0.000000 0.000000 0.000000 21.030832 -6.724368 0.620769 62.912332 1.770475 -6.376265 3.980418 26.590287 0.015734 8.042042 7.502510 0.529225 0.052798 -0.057707 -0.000000 0.000000 0.000000 0.000000 0.000000 0.000000 0.000000 
